solid STL generated by MeshLab
  facet normal  0.000000e+00  0.000000e+00  1.000000e+00
    outer loop
      vertex   4.499800e+01  2.499800e+01  1.000000e+01
      vertex   2.499800e+01  1.000000e+01  1.000000e+01
      vertex   4.499800e+01  1.000000e+01  1.000000e+01
    endloop
  endfacet
  facet normal  0.000000e+00  0.000000e+00  1.000000e+00
    outer loop
      vertex   3.249800e+01  2.498000e+00  1.000000e+01
      vertex   6.499800e+01  4.998000e+00  1.000000e+01
      vertex   4.249800e+01  4.998000e+00  1.000000e+01
    endloop
  endfacet
  facet normal  0.000000e+00  0.000000e+00  1.000000e+00
    outer loop
      vertex   4.499800e+01  2.499800e+01  1.000000e+01
      vertex   6.499800e+01  4.000000e+01  1.000000e+01
      vertex   4.499800e+01  4.000000e+01  1.000000e+01
    endloop
  endfacet
  facet normal  0.000000e+00  0.000000e+00  1.000000e+00
    outer loop
      vertex   7.499800e+01  5.000000e+01  1.000000e+01
      vertex   5.000000e+01  5.000000e+01  1.000000e+01
      vertex   6.499800e+01  4.499800e+01  1.000000e+01
    endloop
  endfacet
  facet normal  0.000000e+00  0.000000e+00  1.000000e+00
    outer loop
      vertex   2.000000e+01  2.499800e+01  1.000000e+01
      vertex   1.000000e+01  2.750000e+01  1.000000e+01
      vertex   2.000000e+01  4.998000e+00  1.000000e+01
    endloop
  endfacet
  facet normal -0.000000e+00  0.000000e+00  1.000000e+00
    outer loop
      vertex   0.000000e+00  2.499800e+01  1.000000e+01
      vertex   2.000000e+01  4.998000e+00  1.000000e+01
      vertex   1.000000e+01  2.750000e+01  1.000000e+01
    endloop
  endfacet
  facet normal  0.000000e+00  0.000000e+00  1.000000e+00
    outer loop
      vertex   5.000000e+01  5.000000e+01  1.000000e+01
      vertex   2.499800e+01  5.000000e+01  1.000000e+01
      vertex   3.249800e+01  4.750000e+01  1.000000e+01
    endloop
  endfacet
  facet normal -0.000000e+00  0.000000e+00  1.000000e+00
    outer loop
      vertex   6.499800e+01  1.000000e+01  1.000000e+01
      vertex   1.000000e+02  0.000000e+00  1.000000e+01
      vertex   8.250001e+01  2.000000e+01  1.000000e+01
    endloop
  endfacet
  facet normal  0.000000e+00  0.000000e+00  1.000000e+00
    outer loop
      vertex   2.000000e+01  4.499800e+01  1.000000e+01
      vertex   4.249800e+01  4.499800e+01  1.000000e+01
      vertex   3.249800e+01  4.750000e+01  1.000000e+01
    endloop
  endfacet
  facet normal  0.000000e+00  0.000000e+00  1.000000e+00
    outer loop
      vertex   3.249800e+01  4.750000e+01  1.000000e+01
      vertex   0.000000e+00  5.000000e+01  1.000000e+01
      vertex   2.000000e+01  4.499800e+01  1.000000e+01
    endloop
  endfacet
  facet normal  0.000000e+00  0.000000e+00  1.000000e+00
    outer loop
      vertex   2.499800e+01  1.000000e+01  1.000000e+01
      vertex   4.499800e+01  2.499800e+01  1.000000e+01
      vertex   2.499800e+01  4.000000e+01  1.000000e+01
    endloop
  endfacet
  facet normal  0.000000e+00  0.000000e+00  1.000000e+00
    outer loop
      vertex   0.000000e+00  0.000000e+00  1.000000e+01
      vertex   2.000000e+01  4.998000e+00  1.000000e+01
      vertex   0.000000e+00  2.499800e+01  1.000000e+01
    endloop
  endfacet
  facet normal  0.000000e+00  0.000000e+00  1.000000e+00
    outer loop
      vertex   5.000000e+01  0.000000e+00  1.000000e+01
      vertex   7.499800e+01  0.000000e+00  1.000000e+01
      vertex   6.499800e+01  4.998000e+00  1.000000e+01
    endloop
  endfacet
  facet normal  0.000000e+00  0.000000e+00  1.000000e+00
    outer loop
      vertex   6.499800e+01  4.499800e+01  1.000000e+01
      vertex   1.000000e+02  5.000000e+01  1.000000e+01
      vertex   7.499800e+01  5.000000e+01  1.000000e+01
    endloop
  endfacet
  facet normal  0.000000e+00  0.000000e+00  1.000000e+00
    outer loop
      vertex   2.000000e+01  4.499800e+01  1.000000e+01
      vertex   1.000000e+01  2.750000e+01  1.000000e+01
      vertex   2.000000e+01  2.499800e+01  1.000000e+01
    endloop
  endfacet
  facet normal  0.000000e+00  0.000000e+00  1.000000e+00
    outer loop
      vertex   2.000000e+01  4.499800e+01  1.000000e+01
      vertex   0.000000e+00  5.000000e+01  1.000000e+01
      vertex   1.000000e+01  2.750000e+01  1.000000e+01
    endloop
  endfacet
  facet normal -0.000000e+00  0.000000e+00  1.000000e+00
    outer loop
      vertex   8.250001e+01  2.000000e+01  1.000000e+01
      vertex   1.000000e+02  0.000000e+00  1.000000e+01
      vertex   8.250001e+01  2.249800e+01  1.000000e+01
    endloop
  endfacet
  facet normal -0.000000e+00  0.000000e+00  1.000000e+00
    outer loop
      vertex   0.000000e+00  5.000000e+01  1.000000e+01
      vertex   3.249800e+01  4.750000e+01  1.000000e+01
      vertex   2.499800e+01  5.000000e+01  1.000000e+01
    endloop
  endfacet
  facet normal  0.000000e+00  0.000000e+00  1.000000e+00
    outer loop
      vertex   6.499800e+01  4.499800e+01  1.000000e+01
      vertex   3.249800e+01  4.750000e+01  1.000000e+01
      vertex   4.249800e+01  4.499800e+01  1.000000e+01
    endloop
  endfacet
  facet normal  0.000000e+00  0.000000e+00  1.000000e+00
    outer loop
      vertex   1.000000e+02  2.499800e+01  1.000000e+01
      vertex   8.250001e+01  2.249800e+01  1.000000e+01
      vertex   1.000000e+02  0.000000e+00  1.000000e+01
    endloop
  endfacet
  facet normal  0.000000e+00  0.000000e+00  1.000000e+00
    outer loop
      vertex   3.249800e+01  2.498000e+00  1.000000e+01
      vertex   0.000000e+00  0.000000e+00  1.000000e+01
      vertex   2.499800e+01  0.000000e+00  1.000000e+01
    endloop
  endfacet
  facet normal  0.000000e+00  0.000000e+00  1.000000e+00
    outer loop
      vertex   6.499800e+01  4.998000e+00  1.000000e+01
      vertex   3.249800e+01  2.498000e+00  1.000000e+01
      vertex   5.000000e+01  0.000000e+00  1.000000e+01
    endloop
  endfacet
  facet normal  0.000000e+00  0.000000e+00  1.000000e+00
    outer loop
      vertex   2.499800e+01  0.000000e+00  1.000000e+01
      vertex   5.000000e+01  0.000000e+00  1.000000e+01
      vertex   3.249800e+01  2.498000e+00  1.000000e+01
    endloop
  endfacet
  facet normal  0.000000e+00  0.000000e+00  1.000000e+00
    outer loop
      vertex   0.000000e+00  0.000000e+00  1.000000e+01
      vertex   3.249800e+01  2.498000e+00  1.000000e+01
      vertex   2.000000e+01  4.998000e+00  1.000000e+01
    endloop
  endfacet
  facet normal  0.000000e+00  0.000000e+00  1.000000e+00
    outer loop
      vertex   0.000000e+00  2.499800e+01  1.000000e+01
      vertex   1.000000e+01  2.750000e+01  1.000000e+01
      vertex   0.000000e+00  5.000000e+01  1.000000e+01
    endloop
  endfacet
  facet normal -0.000000e+00  0.000000e+00  1.000000e+00
    outer loop
      vertex   3.249800e+01  4.750000e+01  1.000000e+01
      vertex   6.499800e+01  4.499800e+01  1.000000e+01
      vertex   5.000000e+01  5.000000e+01  1.000000e+01
    endloop
  endfacet
  facet normal  0.000000e+00  0.000000e+00  1.000000e+00
    outer loop
      vertex   6.499800e+01  4.000000e+01  1.000000e+01
      vertex   4.499800e+01  2.499800e+01  1.000000e+01
      vertex   6.499800e+01  1.000000e+01  1.000000e+01
    endloop
  endfacet
  facet normal  0.000000e+00  0.000000e+00  1.000000e+00
    outer loop
      vertex   1.000000e+02  5.000000e+01  1.000000e+01
      vertex   6.499800e+01  4.499800e+01  1.000000e+01
      vertex   8.250001e+01  2.249800e+01  1.000000e+01
    endloop
  endfacet
  facet normal  0.000000e+00  0.000000e+00  1.000000e+00
    outer loop
      vertex   8.250001e+01  2.249800e+01  1.000000e+01
      vertex   6.499800e+01  4.000000e+01  1.000000e+01
      vertex   8.250001e+01  2.000000e+01  1.000000e+01
    endloop
  endfacet
  facet normal  0.000000e+00  0.000000e+00  1.000000e+00
    outer loop
      vertex   1.000000e+02  0.000000e+00  1.000000e+01
      vertex   6.499800e+01  4.998000e+00  1.000000e+01
      vertex   7.499800e+01  0.000000e+00  1.000000e+01
    endloop
  endfacet
  facet normal -0.000000e+00  0.000000e+00  1.000000e+00
    outer loop
      vertex   6.499800e+01  4.998000e+00  1.000000e+01
      vertex   1.000000e+02  0.000000e+00  1.000000e+01
      vertex   6.499800e+01  1.000000e+01  1.000000e+01
    endloop
  endfacet
  facet normal  0.000000e+00  0.000000e+00  1.000000e+00
    outer loop
      vertex   6.499800e+01  1.000000e+01  1.000000e+01
      vertex   8.250001e+01  2.000000e+01  1.000000e+01
      vertex   6.499800e+01  4.000000e+01  1.000000e+01
    endloop
  endfacet
  facet normal  0.000000e+00  0.000000e+00  1.000000e+00
    outer loop
      vertex   1.000000e+02  5.000000e+01  1.000000e+01
      vertex   8.250001e+01  2.249800e+01  1.000000e+01
      vertex   1.000000e+02  2.499800e+01  1.000000e+01
    endloop
  endfacet
  facet normal  0.000000e+00  0.000000e+00  1.000000e+00
    outer loop
      vertex   4.499800e+01  1.000000e+01  1.000000e+01
      vertex   6.499800e+01  1.000000e+01  1.000000e+01
      vertex   4.499800e+01  2.499800e+01  1.000000e+01
    endloop
  endfacet
  facet normal -0.000000e+00  0.000000e+00  1.000000e+00
    outer loop
      vertex   6.499800e+01  4.000000e+01  1.000000e+01
      vertex   8.250001e+01  2.249800e+01  1.000000e+01
      vertex   6.499800e+01  4.499800e+01  1.000000e+01
    endloop
  endfacet
  facet normal  0.000000e+00  0.000000e+00  1.000000e+00
    outer loop
      vertex   4.499800e+01  4.000000e+01  1.000000e+01
      vertex   2.499800e+01  4.000000e+01  1.000000e+01
      vertex   4.499800e+01  2.499800e+01  1.000000e+01
    endloop
  endfacet
  facet normal  0.000000e+00  0.000000e+00  1.000000e+00
    outer loop
      vertex   4.249800e+01  4.998000e+00  1.000000e+01
      vertex   2.000000e+01  4.998000e+00  1.000000e+01
      vertex   3.249800e+01  2.498000e+00  1.000000e+01
    endloop
  endfacet
  facet normal  1.000000e+00  0.000000e+00  0.000000e+00
    outer loop
      vertex   2.499800e+01  4.000000e+01  2.995800e+01
      vertex   2.499800e+01  2.499800e+01  3.000000e+01
      vertex   2.499800e+01  4.000000e+01  1.000000e+01
    endloop
  endfacet
  facet normal  1.000000e+00  0.000000e+00  0.000000e+00
    outer loop
      vertex   2.499800e+01  4.000000e+01  4.991600e+01
      vertex   2.499800e+01  1.000000e+01  5.000000e+01
      vertex   2.499800e+01  2.499800e+01  3.000000e+01
    endloop
  endfacet
  facet normal  1.000000e+00  0.000000e+00  0.000000e+00
    outer loop
      vertex   2.499800e+01  1.000000e+01  1.000000e+01
      vertex   2.499800e+01  2.499800e+01  3.000000e+01
      vertex   2.499800e+01  1.000000e+01  3.000000e+01
    endloop
  endfacet
  facet normal  1.000000e+00  0.000000e+00  0.000000e+00
    outer loop
      vertex   2.499800e+01  1.000000e+01  1.000000e+01
      vertex   2.499800e+01  4.000000e+01  1.000000e+01
      vertex   2.499800e+01  2.499800e+01  3.000000e+01
    endloop
  endfacet
  facet normal  1.000000e+00  0.000000e+00  0.000000e+00
    outer loop
      vertex   2.499800e+01  1.000000e+01  3.000000e+01
      vertex   2.499800e+01  2.499800e+01  3.000000e+01
      vertex   2.499800e+01  1.000000e+01  5.000000e+01
    endloop
  endfacet
  facet normal  1.000000e+00  0.000000e+00  0.000000e+00
    outer loop
      vertex   2.499800e+01  4.000000e+01  4.991600e+01
      vertex   2.499800e+01  2.499800e+01  3.000000e+01
      vertex   2.499800e+01  4.000000e+01  2.995800e+01
    endloop
  endfacet
  facet normal  1.000000e+00  0.000000e+00  0.000000e+00
    outer loop
      vertex   2.499800e+01  4.499800e+01  5.000000e+01
      vertex   2.499800e+01  4.000000e+01  4.991600e+01
      vertex   2.499800e+01  4.499800e+01  4.991600e+01
    endloop
  endfacet
  facet normal  1.000000e+00  0.000000e+00  0.000000e+00
    outer loop
      vertex   2.499800e+01  4.499800e+01  5.000000e+01
      vertex   2.499800e+01  1.000000e+01  5.000000e+01
      vertex   2.499800e+01  4.000000e+01  4.991600e+01
    endloop
  endfacet
  facet normal -1.000000e+00  0.000000e+00  0.000000e+00
    outer loop
      vertex   0.000000e+00  0.000000e+00  0.000000e+00
      vertex   0.000000e+00  0.000000e+00  1.000000e+01
      vertex   0.000000e+00  2.499800e+01  4.998000e+00
    endloop
  endfacet
  facet normal -1.000000e+00 -0.000000e+00 -0.000000e+00
    outer loop
      vertex   0.000000e+00  2.499800e+01  1.000000e+01
      vertex   0.000000e+00  2.499800e+01  4.998000e+00
      vertex   0.000000e+00  0.000000e+00  1.000000e+01
    endloop
  endfacet
  facet normal -1.000000e+00  0.000000e+00  0.000000e+00
    outer loop
      vertex   0.000000e+00  2.499800e+01  0.000000e+00
      vertex   0.000000e+00  2.499800e+01  4.998000e+00
      vertex   0.000000e+00  5.000000e+01  0.000000e+00
    endloop
  endfacet
  facet normal -1.000000e+00  0.000000e+00  0.000000e+00
    outer loop
      vertex   0.000000e+00  2.499800e+01  4.998000e+00
      vertex   0.000000e+00  2.499800e+01  1.000000e+01
      vertex   0.000000e+00  5.000000e+01  1.000000e+01
    endloop
  endfacet
  facet normal -1.000000e+00  0.000000e+00 -0.000000e+00
    outer loop
      vertex   0.000000e+00  5.000000e+01  1.000000e+01
      vertex   0.000000e+00  5.000000e+01  0.000000e+00
      vertex   0.000000e+00  2.499800e+01  4.998000e+00
    endloop
  endfacet
  facet normal -1.000000e+00  0.000000e+00 -0.000000e+00
    outer loop
      vertex   0.000000e+00  2.499800e+01  4.998000e+00
      vertex   0.000000e+00  2.499800e+01  0.000000e+00
      vertex   0.000000e+00  0.000000e+00  0.000000e+00
    endloop
  endfacet
  facet normal  0.000000e+00 -1.000000e+00  0.000000e+00
    outer loop
      vertex   5.000000e+01  0.000000e+00  0.000000e+00
      vertex   7.499800e+01  0.000000e+00  0.000000e+00
      vertex   7.499800e+01  0.000000e+00  2.498000e+00
    endloop
  endfacet
  facet normal -0.000000e+00 -1.000000e+00 -0.000000e+00
    outer loop
      vertex   7.499800e+01  0.000000e+00  1.000000e+01
      vertex   5.000000e+01  0.000000e+00  1.000000e+01
      vertex   7.499800e+01  0.000000e+00  7.500000e+00
    endloop
  endfacet
  facet normal  0.000000e+00 -1.000000e+00  0.000000e+00
    outer loop
      vertex   5.000000e+01  0.000000e+00  4.998000e+00
      vertex   7.499800e+01  0.000000e+00  7.500000e+00
      vertex   5.000000e+01  0.000000e+00  1.000000e+01
    endloop
  endfacet
  facet normal -0.000000e+00 -1.000000e+00  0.000000e+00
    outer loop
      vertex   5.000000e+01  0.000000e+00  1.000000e+01
      vertex   2.499800e+01  0.000000e+00  1.000000e+01
      vertex   2.499800e+01  0.000000e+00  7.500000e+00
    endloop
  endfacet
  facet normal -0.000000e+00 -1.000000e+00  0.000000e+00
    outer loop
      vertex   1.000000e+02  0.000000e+00  1.000000e+01
      vertex   7.499800e+01  0.000000e+00  1.000000e+01
      vertex   7.499800e+01  0.000000e+00  7.500000e+00
    endloop
  endfacet
  facet normal -0.000000e+00 -1.000000e+00 -0.000000e+00
    outer loop
      vertex   2.499800e+01  0.000000e+00  1.000000e+01
      vertex   0.000000e+00  0.000000e+00  1.000000e+01
      vertex   2.499800e+01  0.000000e+00  7.500000e+00
    endloop
  endfacet
  facet normal  0.000000e+00 -1.000000e+00  0.000000e+00
    outer loop
      vertex   7.499800e+01  0.000000e+00  0.000000e+00
      vertex   1.000000e+02  0.000000e+00  0.000000e+00
      vertex   7.499800e+01  0.000000e+00  2.498000e+00
    endloop
  endfacet
  facet normal  0.000000e+00 -1.000000e+00  0.000000e+00
    outer loop
      vertex   0.000000e+00  0.000000e+00  0.000000e+00
      vertex   2.499800e+01  0.000000e+00  7.500000e+00
      vertex   0.000000e+00  0.000000e+00  1.000000e+01
    endloop
  endfacet
  facet normal  0.000000e+00 -1.000000e+00  0.000000e+00
    outer loop
      vertex   0.000000e+00  0.000000e+00  0.000000e+00
      vertex   2.499800e+01  0.000000e+00  0.000000e+00
      vertex   2.499800e+01  0.000000e+00  2.498000e+00
    endloop
  endfacet
  facet normal  0.000000e+00 -1.000000e+00  0.000000e+00
    outer loop
      vertex   5.000000e+01  0.000000e+00  0.000000e+00
      vertex   7.499800e+01  0.000000e+00  2.498000e+00
      vertex   5.000000e+01  0.000000e+00  4.998000e+00
    endloop
  endfacet
  facet normal  0.000000e+00 -1.000000e+00 -0.000000e+00
    outer loop
      vertex   1.000000e+02  0.000000e+00  1.000000e+01
      vertex   7.499800e+01  0.000000e+00  2.498000e+00
      vertex   1.000000e+02  0.000000e+00  0.000000e+00
    endloop
  endfacet
  facet normal  0.000000e+00 -1.000000e+00 -0.000000e+00
    outer loop
      vertex   5.000000e+01  0.000000e+00  4.998000e+00
      vertex   2.499800e+01  0.000000e+00  2.498000e+00
      vertex   5.000000e+01  0.000000e+00  0.000000e+00
    endloop
  endfacet
  facet normal  0.000000e+00 -1.000000e+00  0.000000e+00
    outer loop
      vertex   2.499800e+01  0.000000e+00  2.498000e+00
      vertex   5.000000e+01  0.000000e+00  4.998000e+00
      vertex   2.499800e+01  0.000000e+00  7.500000e+00
    endloop
  endfacet
  facet normal  0.000000e+00 -1.000000e+00  0.000000e+00
    outer loop
      vertex   1.000000e+02  0.000000e+00  1.000000e+01
      vertex   7.499800e+01  0.000000e+00  7.500000e+00
      vertex   7.499800e+01  0.000000e+00  2.498000e+00
    endloop
  endfacet
  facet normal  0.000000e+00 -1.000000e+00  0.000000e+00
    outer loop
      vertex   0.000000e+00  0.000000e+00  0.000000e+00
      vertex   2.499800e+01  0.000000e+00  2.498000e+00
      vertex   2.499800e+01  0.000000e+00  7.500000e+00
    endloop
  endfacet
  facet normal  0.000000e+00 -1.000000e+00 -0.000000e+00
    outer loop
      vertex   5.000000e+01  0.000000e+00  1.000000e+01
      vertex   2.499800e+01  0.000000e+00  7.500000e+00
      vertex   5.000000e+01  0.000000e+00  4.998000e+00
    endloop
  endfacet
  facet normal  0.000000e+00 -1.000000e+00 -0.000000e+00
    outer loop
      vertex   7.499800e+01  0.000000e+00  7.500000e+00
      vertex   5.000000e+01  0.000000e+00  4.998000e+00
      vertex   7.499800e+01  0.000000e+00  2.498000e+00
    endloop
  endfacet
  facet normal  0.000000e+00 -1.000000e+00  0.000000e+00
    outer loop
      vertex   2.499800e+01  0.000000e+00  0.000000e+00
      vertex   5.000000e+01  0.000000e+00  0.000000e+00
      vertex   2.499800e+01  0.000000e+00  2.498000e+00
    endloop
  endfacet
  facet normal  1.000000e+00  0.000000e+00  0.000000e+00
    outer loop
      vertex   1.000000e+02  2.499800e+01  4.998000e+00
      vertex   1.000000e+02  0.000000e+00  0.000000e+00
      vertex   1.000000e+02  2.499800e+01  0.000000e+00
    endloop
  endfacet
  facet normal  1.000000e+00  0.000000e+00  0.000000e+00
    outer loop
      vertex   1.000000e+02  2.499800e+01  4.998000e+00
      vertex   1.000000e+02  5.000000e+01  1.000000e+01
      vertex   1.000000e+02  2.499800e+01  1.000000e+01
    endloop
  endfacet
  facet normal  1.000000e+00  0.000000e+00  0.000000e+00
    outer loop
      vertex   1.000000e+02  2.499800e+01  1.000000e+01
      vertex   1.000000e+02  0.000000e+00  1.000000e+01
      vertex   1.000000e+02  2.499800e+01  4.998000e+00
    endloop
  endfacet
  facet normal  1.000000e+00  0.000000e+00  0.000000e+00
    outer loop
      vertex   1.000000e+02  5.000000e+01  1.000000e+01
      vertex   1.000000e+02  2.499800e+01  4.998000e+00
      vertex   1.000000e+02  5.000000e+01  0.000000e+00
    endloop
  endfacet
  facet normal  1.000000e+00  0.000000e+00  0.000000e+00
    outer loop
      vertex   1.000000e+02  2.499800e+01  0.000000e+00
      vertex   1.000000e+02  5.000000e+01  0.000000e+00
      vertex   1.000000e+02  2.499800e+01  4.998000e+00
    endloop
  endfacet
  facet normal  1.000000e+00  0.000000e+00  0.000000e+00
    outer loop
      vertex   1.000000e+02  0.000000e+00  0.000000e+00
      vertex   1.000000e+02  2.499800e+01  4.998000e+00
      vertex   1.000000e+02  0.000000e+00  1.000000e+01
    endloop
  endfacet
  facet normal  0.000000e+00  1.000000e+00  0.000000e+00
    outer loop
      vertex   0.000000e+00  5.000000e+01  0.000000e+00
      vertex   2.499800e+01  5.000000e+01  2.498000e+00
      vertex   2.499800e+01  5.000000e+01  0.000000e+00
    endloop
  endfacet
  facet normal  0.000000e+00  1.000000e+00  0.000000e+00
    outer loop
      vertex   2.499800e+01  5.000000e+01  1.000000e+01
      vertex   2.499800e+01  5.000000e+01  7.500000e+00
      vertex   0.000000e+00  5.000000e+01  1.000000e+01
    endloop
  endfacet
  facet normal  0.000000e+00  1.000000e+00  0.000000e+00
    outer loop
      vertex   2.499800e+01  5.000000e+01  0.000000e+00
      vertex   2.499800e+01  5.000000e+01  2.498000e+00
      vertex   5.000000e+01  5.000000e+01  0.000000e+00
    endloop
  endfacet
  facet normal  0.000000e+00  1.000000e+00  0.000000e+00
    outer loop
      vertex   5.000000e+01  5.000000e+01  1.000000e+01
      vertex   2.499800e+01  5.000000e+01  7.500000e+00
      vertex   2.499800e+01  5.000000e+01  1.000000e+01
    endloop
  endfacet
  facet normal  0.000000e+00  1.000000e+00  0.000000e+00
    outer loop
      vertex   7.499800e+01  5.000000e+01  1.000000e+01
      vertex   7.499800e+01  5.000000e+01  7.500000e+00
      vertex   5.000000e+01  5.000000e+01  1.000000e+01
    endloop
  endfacet
  facet normal  0.000000e+00  1.000000e+00  0.000000e+00
    outer loop
      vertex   5.000000e+01  5.000000e+01  4.998000e+00
      vertex   5.000000e+01  5.000000e+01  0.000000e+00
      vertex   2.499800e+01  5.000000e+01  2.498000e+00
    endloop
  endfacet
  facet normal  0.000000e+00  1.000000e+00  0.000000e+00
    outer loop
      vertex   5.000000e+01  5.000000e+01  0.000000e+00
      vertex   5.000000e+01  5.000000e+01  4.998000e+00
      vertex   7.499800e+01  5.000000e+01  2.498000e+00
    endloop
  endfacet
  facet normal  0.000000e+00  1.000000e+00  0.000000e+00
    outer loop
      vertex   5.000000e+01  5.000000e+01  0.000000e+00
      vertex   7.499800e+01  5.000000e+01  2.498000e+00
      vertex   7.499800e+01  5.000000e+01  0.000000e+00
    endloop
  endfacet
  facet normal  0.000000e+00  1.000000e+00  0.000000e+00
    outer loop
      vertex   7.499800e+01  5.000000e+01  0.000000e+00
      vertex   7.499800e+01  5.000000e+01  2.498000e+00
      vertex   1.000000e+02  5.000000e+01  0.000000e+00
    endloop
  endfacet
  facet normal  0.000000e+00  1.000000e+00  0.000000e+00
    outer loop
      vertex   0.000000e+00  5.000000e+01  0.000000e+00
      vertex   0.000000e+00  5.000000e+01  1.000000e+01
      vertex   2.499800e+01  5.000000e+01  2.498000e+00
    endloop
  endfacet
  facet normal  0.000000e+00  1.000000e+00  0.000000e+00
    outer loop
      vertex   7.499800e+01  5.000000e+01  7.500000e+00
      vertex   7.499800e+01  5.000000e+01  2.498000e+00
      vertex   5.000000e+01  5.000000e+01  4.998000e+00
    endloop
  endfacet
  facet normal  0.000000e+00  1.000000e+00 -0.000000e+00
    outer loop
      vertex   2.499800e+01  5.000000e+01  2.498000e+00
      vertex   0.000000e+00  5.000000e+01  1.000000e+01
      vertex   2.499800e+01  5.000000e+01  7.500000e+00
    endloop
  endfacet
  facet normal  0.000000e+00  1.000000e+00  0.000000e+00
    outer loop
      vertex   7.499800e+01  5.000000e+01  7.500000e+00
      vertex   1.000000e+02  5.000000e+01  0.000000e+00
      vertex   7.499800e+01  5.000000e+01  2.498000e+00
    endloop
  endfacet
  facet normal  0.000000e+00  1.000000e+00  0.000000e+00
    outer loop
      vertex   2.499800e+01  5.000000e+01  2.498000e+00
      vertex   2.499800e+01  5.000000e+01  7.500000e+00
      vertex   5.000000e+01  5.000000e+01  4.998000e+00
    endloop
  endfacet
  facet normal  0.000000e+00  1.000000e+00  0.000000e+00
    outer loop
      vertex   5.000000e+01  5.000000e+01  1.000000e+01
      vertex   5.000000e+01  5.000000e+01  4.998000e+00
      vertex   2.499800e+01  5.000000e+01  7.500000e+00
    endloop
  endfacet
  facet normal  0.000000e+00  1.000000e+00  0.000000e+00
    outer loop
      vertex   5.000000e+01  5.000000e+01  4.998000e+00
      vertex   5.000000e+01  5.000000e+01  1.000000e+01
      vertex   7.499800e+01  5.000000e+01  7.500000e+00
    endloop
  endfacet
  facet normal  0.000000e+00  1.000000e+00  0.000000e+00
    outer loop
      vertex   1.000000e+02  5.000000e+01  1.000000e+01
      vertex   7.499800e+01  5.000000e+01  7.500000e+00
      vertex   7.499800e+01  5.000000e+01  1.000000e+01
    endloop
  endfacet
  facet normal  0.000000e+00  1.000000e+00  0.000000e+00
    outer loop
      vertex   1.000000e+02  5.000000e+01  1.000000e+01
      vertex   1.000000e+02  5.000000e+01  0.000000e+00
      vertex   7.499800e+01  5.000000e+01  7.500000e+00
    endloop
  endfacet
  facet normal  0.000000e+00  0.000000e+00 -1.000000e+00
    outer loop
      vertex   0.000000e+00  0.000000e+00  0.000000e+00
      vertex   0.000000e+00  2.499800e+01  0.000000e+00
      vertex   1.249800e+01  1.874800e+01  0.000000e+00
    endloop
  endfacet
  facet normal  0.000000e+00  0.000000e+00 -1.000000e+00
    outer loop
      vertex   0.000000e+00  0.000000e+00  0.000000e+00
      vertex   1.249800e+01  1.874800e+01  0.000000e+00
      vertex   2.499800e+01  1.249800e+01  0.000000e+00
    endloop
  endfacet
  facet normal  0.000000e+00  0.000000e+00 -1.000000e+00
    outer loop
      vertex   2.499800e+01  3.750000e+01  0.000000e+00
      vertex   1.249800e+01  1.874800e+01  0.000000e+00
      vertex   0.000000e+00  2.499800e+01  0.000000e+00
    endloop
  endfacet
  facet normal  0.000000e+00 -0.000000e+00 -1.000000e+00
    outer loop
      vertex   2.499800e+01  3.750000e+01  0.000000e+00
      vertex   2.499800e+01  1.249800e+01  0.000000e+00
      vertex   1.249800e+01  1.874800e+01  0.000000e+00
    endloop
  endfacet
  facet normal  0.000000e+00 -0.000000e+00 -1.000000e+00
    outer loop
      vertex   1.000000e+02  5.000000e+01  0.000000e+00
      vertex   1.000000e+02  2.499800e+01  0.000000e+00
      vertex   8.749800e+01  3.125000e+01  0.000000e+00
    endloop
  endfacet
  facet normal  0.000000e+00  0.000000e+00 -1.000000e+00
    outer loop
      vertex   7.499800e+01  1.249800e+01  0.000000e+00
      vertex   8.749800e+01  3.125000e+01  0.000000e+00
      vertex   1.000000e+02  2.499800e+01  0.000000e+00
    endloop
  endfacet
  facet normal  0.000000e+00  0.000000e+00 -1.000000e+00
    outer loop
      vertex   7.499800e+01  0.000000e+00  0.000000e+00
      vertex   7.499800e+01  1.249800e+01  0.000000e+00
      vertex   1.000000e+02  0.000000e+00  0.000000e+00
    endloop
  endfacet
  facet normal  0.000000e+00  0.000000e+00 -1.000000e+00
    outer loop
      vertex   1.000000e+02  5.000000e+01  0.000000e+00
      vertex   8.749800e+01  3.125000e+01  0.000000e+00
      vertex   7.499800e+01  3.750000e+01  0.000000e+00
    endloop
  endfacet
  facet normal -0.000000e+00 -0.000000e+00 -1.000000e+00
    outer loop
      vertex   7.499800e+01  5.000000e+01  0.000000e+00
      vertex   7.499800e+01  3.750000e+01  0.000000e+00
      vertex   5.000000e+01  5.000000e+01  0.000000e+00
    endloop
  endfacet
  facet normal  0.000000e+00 -0.000000e+00 -1.000000e+00
    outer loop
      vertex   1.000000e+02  2.499800e+01  0.000000e+00
      vertex   1.000000e+02  0.000000e+00  0.000000e+00
      vertex   7.499800e+01  1.249800e+01  0.000000e+00
    endloop
  endfacet
  facet normal  0.000000e+00  0.000000e+00 -1.000000e+00
    outer loop
      vertex   2.499800e+01  3.750000e+01  0.000000e+00
      vertex   2.499800e+01  5.000000e+01  0.000000e+00
      vertex   5.000000e+01  5.000000e+01  0.000000e+00
    endloop
  endfacet
  facet normal -0.000000e+00 -0.000000e+00 -1.000000e+00
    outer loop
      vertex   2.499800e+01  5.000000e+01  0.000000e+00
      vertex   2.499800e+01  3.750000e+01  0.000000e+00
      vertex   0.000000e+00  5.000000e+01  0.000000e+00
    endloop
  endfacet
  facet normal  0.000000e+00  0.000000e+00 -1.000000e+00
    outer loop
      vertex   7.499800e+01  3.750000e+01  0.000000e+00
      vertex   7.499800e+01  5.000000e+01  0.000000e+00
      vertex   1.000000e+02  5.000000e+01  0.000000e+00
    endloop
  endfacet
  facet normal  0.000000e+00 -0.000000e+00 -1.000000e+00
    outer loop
      vertex   7.499800e+01  3.750000e+01  0.000000e+00
      vertex   7.499800e+01  1.249800e+01  0.000000e+00
      vertex   5.000000e+01  2.499800e+01  0.000000e+00
    endloop
  endfacet
  facet normal  0.000000e+00  0.000000e+00 -1.000000e+00
    outer loop
      vertex   2.499800e+01  0.000000e+00  0.000000e+00
      vertex   2.499800e+01  1.249800e+01  0.000000e+00
      vertex   5.000000e+01  0.000000e+00  0.000000e+00
    endloop
  endfacet
  facet normal  0.000000e+00  0.000000e+00 -1.000000e+00
    outer loop
      vertex   0.000000e+00  2.499800e+01  0.000000e+00
      vertex   0.000000e+00  5.000000e+01  0.000000e+00
      vertex   2.499800e+01  3.750000e+01  0.000000e+00
    endloop
  endfacet
  facet normal  0.000000e+00  0.000000e+00 -1.000000e+00
    outer loop
      vertex   7.499800e+01  1.249800e+01  0.000000e+00
      vertex   7.499800e+01  3.750000e+01  0.000000e+00
      vertex   8.749800e+01  3.125000e+01  0.000000e+00
    endloop
  endfacet
  facet normal  0.000000e+00 -0.000000e+00 -1.000000e+00
    outer loop
      vertex   5.000000e+01  2.499800e+01  0.000000e+00
      vertex   5.000000e+01  0.000000e+00  0.000000e+00
      vertex   2.499800e+01  1.249800e+01  0.000000e+00
    endloop
  endfacet
  facet normal  0.000000e+00  0.000000e+00 -1.000000e+00
    outer loop
      vertex   2.499800e+01  1.249800e+01  0.000000e+00
      vertex   2.499800e+01  3.750000e+01  0.000000e+00
      vertex   5.000000e+01  2.499800e+01  0.000000e+00
    endloop
  endfacet
  facet normal  0.000000e+00  0.000000e+00 -1.000000e+00
    outer loop
      vertex   5.000000e+01  2.499800e+01  0.000000e+00
      vertex   5.000000e+01  5.000000e+01  0.000000e+00
      vertex   7.499800e+01  3.750000e+01  0.000000e+00
    endloop
  endfacet
  facet normal  0.000000e+00 -0.000000e+00 -1.000000e+00
    outer loop
      vertex   2.499800e+01  1.249800e+01  0.000000e+00
      vertex   2.499800e+01  0.000000e+00  0.000000e+00
      vertex   0.000000e+00  0.000000e+00  0.000000e+00
    endloop
  endfacet
  facet normal  0.000000e+00  0.000000e+00 -1.000000e+00
    outer loop
      vertex   5.000000e+01  0.000000e+00  0.000000e+00
      vertex   5.000000e+01  2.499800e+01  0.000000e+00
      vertex   7.499800e+01  1.249800e+01  0.000000e+00
    endloop
  endfacet
  facet normal  0.000000e+00 -0.000000e+00 -1.000000e+00
    outer loop
      vertex   5.000000e+01  5.000000e+01  0.000000e+00
      vertex   5.000000e+01  2.499800e+01  0.000000e+00
      vertex   2.499800e+01  3.750000e+01  0.000000e+00
    endloop
  endfacet
  facet normal  0.000000e+00 -0.000000e+00 -1.000000e+00
    outer loop
      vertex   7.499800e+01  1.249800e+01  0.000000e+00
      vertex   7.499800e+01  0.000000e+00  0.000000e+00
      vertex   5.000000e+01  0.000000e+00  0.000000e+00
    endloop
  endfacet
  facet normal  0.000000e+00  1.000000e+00  0.000000e+00
    outer loop
      vertex   2.000000e+01  4.499800e+01  1.000000e+01
      vertex   2.000000e+01  4.499800e+01  3.000000e+01
      vertex   2.249800e+01  4.499800e+01  2.995800e+01
    endloop
  endfacet
  facet normal  0.000000e+00  1.000000e+00  0.000000e+00
    outer loop
      vertex   2.000000e+01  4.499800e+01  5.000000e+01
      vertex   2.249800e+01  4.499800e+01  2.995800e+01
      vertex   2.000000e+01  4.499800e+01  3.000000e+01
    endloop
  endfacet
  facet normal  0.000000e+00  1.000000e+00 -0.000000e+00
    outer loop
      vertex   2.249800e+01  4.499800e+01  2.995800e+01
      vertex   2.000000e+01  4.499800e+01  5.000000e+01
      vertex   2.499800e+01  4.499800e+01  4.991600e+01
    endloop
  endfacet
  facet normal  0.000000e+00  1.000000e+00  0.000000e+00
    outer loop
      vertex   2.249800e+01  4.499800e+01  2.995800e+01
      vertex   2.499800e+01  4.499800e+01  4.991600e+01
      vertex   4.499800e+01  4.499800e+01  2.995800e+01
    endloop
  endfacet
  facet normal  0.000000e+00  1.000000e+00  0.000000e+00
    outer loop
      vertex   4.499800e+01  4.499800e+01  2.995800e+01
      vertex   2.000000e+01  4.499800e+01  1.000000e+01
      vertex   2.249800e+01  4.499800e+01  2.995800e+01
    endloop
  endfacet
  facet normal  0.000000e+00  1.000000e+00  0.000000e+00
    outer loop
      vertex   4.249800e+01  4.499800e+01  1.000000e+01
      vertex   4.499800e+01  4.499800e+01  2.995800e+01
      vertex   6.499800e+01  4.499800e+01  1.000000e+01
    endloop
  endfacet
  facet normal  0.000000e+00  1.000000e+00  0.000000e+00
    outer loop
      vertex   2.499800e+01  4.499800e+01  5.000000e+01
      vertex   2.499800e+01  4.499800e+01  4.991600e+01
      vertex   2.000000e+01  4.499800e+01  5.000000e+01
    endloop
  endfacet
  facet normal  0.000000e+00  1.000000e+00  0.000000e+00
    outer loop
      vertex   2.000000e+01  4.499800e+01  1.000000e+01
      vertex   4.499800e+01  4.499800e+01  2.995800e+01
      vertex   4.249800e+01  4.499800e+01  1.000000e+01
    endloop
  endfacet
  facet normal -1.000000e+00  0.000000e+00  0.000000e+00
    outer loop
      vertex   2.000000e+01  4.998000e+00  1.000000e+01
      vertex   2.000000e+01  4.998000e+00  3.000000e+01
      vertex   2.000000e+01  2.499800e+01  3.000000e+01
    endloop
  endfacet
  facet normal -1.000000e+00  0.000000e+00  0.000000e+00
    outer loop
      vertex   2.000000e+01  2.499800e+01  1.000000e+01
      vertex   2.000000e+01  2.499800e+01  3.000000e+01
      vertex   2.000000e+01  4.499800e+01  1.000000e+01
    endloop
  endfacet
  facet normal -1.000000e+00 -0.000000e+00 -0.000000e+00
    outer loop
      vertex   2.000000e+01  4.499800e+01  3.000000e+01
      vertex   2.000000e+01  4.499800e+01  1.000000e+01
      vertex   2.000000e+01  2.499800e+01  3.000000e+01
    endloop
  endfacet
  facet normal -1.000000e+00  0.000000e+00 -0.000000e+00
    outer loop
      vertex   2.000000e+01  4.499800e+01  5.000000e+01
      vertex   2.000000e+01  4.499800e+01  3.000000e+01
      vertex   2.000000e+01  2.499800e+01  3.000000e+01
    endloop
  endfacet
  facet normal -1.000000e+00  0.000000e+00  0.000000e+00
    outer loop
      vertex   2.000000e+01  2.499800e+01  3.000000e+01
      vertex   2.000000e+01  2.499800e+01  5.000000e+01
      vertex   2.000000e+01  4.499800e+01  5.000000e+01
    endloop
  endfacet
  facet normal -1.000000e+00 -0.000000e+00 -0.000000e+00
    outer loop
      vertex   2.000000e+01  2.499800e+01  5.000000e+01
      vertex   2.000000e+01  2.499800e+01  3.000000e+01
      vertex   2.000000e+01  4.998000e+00  5.000000e+01
    endloop
  endfacet
  facet normal -1.000000e+00  0.000000e+00 -0.000000e+00
    outer loop
      vertex   2.000000e+01  2.499800e+01  3.000000e+01
      vertex   2.000000e+01  2.499800e+01  1.000000e+01
      vertex   2.000000e+01  4.998000e+00  1.000000e+01
    endloop
  endfacet
  facet normal -1.000000e+00  0.000000e+00  0.000000e+00
    outer loop
      vertex   2.000000e+01  4.998000e+00  3.000000e+01
      vertex   2.000000e+01  4.998000e+00  5.000000e+01
      vertex   2.000000e+01  2.499800e+01  3.000000e+01
    endloop
  endfacet
  facet normal  0.000000e+00 -1.000000e+00  0.000000e+00
    outer loop
      vertex   4.249800e+01  4.998000e+00  1.000000e+01
      vertex   6.499800e+01  4.998000e+00  1.000000e+01
      vertex   4.249800e+01  4.998000e+00  3.000000e+01
    endloop
  endfacet
  facet normal  0.000000e+00 -1.000000e+00  0.000000e+00
    outer loop
      vertex   2.000000e+01  4.998000e+00  1.000000e+01
      vertex   4.249800e+01  4.998000e+00  1.000000e+01
      vertex   4.249800e+01  4.998000e+00  3.000000e+01
    endloop
  endfacet
  facet normal  0.000000e+00 -1.000000e+00  0.000000e+00
    outer loop
      vertex   2.000000e+01  4.998000e+00  3.000000e+01
      vertex   4.249800e+01  4.998000e+00  3.000000e+01
      vertex   2.000000e+01  4.998000e+00  5.000000e+01
    endloop
  endfacet
  facet normal  0.000000e+00 -1.000000e+00  0.000000e+00
    outer loop
      vertex   4.249800e+01  4.998000e+00  3.000000e+01
      vertex   4.499800e+01  4.998000e+00  3.000000e+01
      vertex   2.499800e+01  4.998000e+00  5.000000e+01
    endloop
  endfacet
  facet normal -0.000000e+00 -1.000000e+00 -0.000000e+00
    outer loop
      vertex   4.499800e+01  4.998000e+00  3.000000e+01
      vertex   4.249800e+01  4.998000e+00  3.000000e+01
      vertex   6.499800e+01  4.998000e+00  1.000000e+01
    endloop
  endfacet
  facet normal -0.000000e+00 -1.000000e+00 -0.000000e+00
    outer loop
      vertex   2.499800e+01  4.998000e+00  5.000000e+01
      vertex   2.000000e+01  4.998000e+00  5.000000e+01
      vertex   4.249800e+01  4.998000e+00  3.000000e+01
    endloop
  endfacet
  facet normal -0.000000e+00 -1.000000e+00  0.000000e+00
    outer loop
      vertex   4.249800e+01  4.998000e+00  3.000000e+01
      vertex   2.000000e+01  4.998000e+00  3.000000e+01
      vertex   2.000000e+01  4.998000e+00  1.000000e+01
    endloop
  endfacet
  facet normal  0.000000e+00  0.000000e+00  1.000000e+00
    outer loop
      vertex   2.499800e+01  1.000000e+01  5.000000e+01
      vertex   2.000000e+01  4.998000e+00  5.000000e+01
      vertex   2.499800e+01  4.998000e+00  5.000000e+01
    endloop
  endfacet
  facet normal -0.000000e+00  0.000000e+00  1.000000e+00
    outer loop
      vertex   2.000000e+01  2.499800e+01  5.000000e+01
      vertex   2.499800e+01  1.000000e+01  5.000000e+01
      vertex   2.000000e+01  4.499800e+01  5.000000e+01
    endloop
  endfacet
  facet normal  0.000000e+00  0.000000e+00  1.000000e+00
    outer loop
      vertex   2.000000e+01  4.998000e+00  5.000000e+01
      vertex   2.499800e+01  1.000000e+01  5.000000e+01
      vertex   2.000000e+01  2.499800e+01  5.000000e+01
    endloop
  endfacet
  facet normal  0.000000e+00  0.000000e+00  1.000000e+00
    outer loop
      vertex   2.499800e+01  4.499800e+01  5.000000e+01
      vertex   2.000000e+01  4.499800e+01  5.000000e+01
      vertex   2.499800e+01  1.000000e+01  5.000000e+01
    endloop
  endfacet
  facet normal  7.071068e-01  0.000000e+00  7.071068e-01
    outer loop
      vertex   4.499800e+01  1.000000e+01  3.000000e+01
      vertex   4.499800e+01  7.500000e+00  3.000000e+01
      vertex   6.499800e+01  1.000000e+01  1.000000e+01
    endloop
  endfacet
  facet normal  7.071069e-01  0.000000e+00  7.071068e-01
    outer loop
      vertex   2.499800e+01  1.000000e+01  5.000000e+01
      vertex   2.499800e+01  4.998000e+00  5.000000e+01
      vertex   4.499800e+01  7.500000e+00  3.000000e+01
    endloop
  endfacet
  facet normal  7.071069e-01 -0.000000e+00  7.071068e-01
    outer loop
      vertex   6.499800e+01  4.998000e+00  1.000000e+01
      vertex   6.499800e+01  1.000000e+01  1.000000e+01
      vertex   4.499800e+01  7.500000e+00  3.000000e+01
    endloop
  endfacet
  facet normal  7.071068e-01  0.000000e+00  7.071067e-01
    outer loop
      vertex   6.499800e+01  4.998000e+00  1.000000e+01
      vertex   4.499800e+01  7.500000e+00  3.000000e+01
      vertex   4.499800e+01  4.998000e+00  3.000000e+01
    endloop
  endfacet
  facet normal  7.071068e-01 -0.000000e+00  7.071067e-01
    outer loop
      vertex   4.499800e+01  4.998000e+00  3.000000e+01
      vertex   4.499800e+01  7.500000e+00  3.000000e+01
      vertex   2.499800e+01  4.998000e+00  5.000000e+01
    endloop
  endfacet
  facet normal  7.071068e-01  0.000000e+00  7.071068e-01
    outer loop
      vertex   2.499800e+01  1.000000e+01  5.000000e+01
      vertex   4.499800e+01  7.500000e+00  3.000000e+01
      vertex   4.499800e+01  1.000000e+01  3.000000e+01
    endloop
  endfacet
  facet normal  0.000000e+00  1.000000e+00  0.000000e+00
    outer loop
      vertex   4.499800e+01  1.000000e+01  3.000000e+01
      vertex   2.499800e+01  1.000000e+01  1.000000e+01
      vertex   2.499800e+01  1.000000e+01  3.000000e+01
    endloop
  endfacet
  facet normal  0.000000e+00  1.000000e+00  0.000000e+00
    outer loop
      vertex   2.499800e+01  1.000000e+01  3.000000e+01
      vertex   2.499800e+01  1.000000e+01  5.000000e+01
      vertex   4.499800e+01  1.000000e+01  3.000000e+01
    endloop
  endfacet
  facet normal  0.000000e+00  1.000000e+00  0.000000e+00
    outer loop
      vertex   4.499800e+01  1.000000e+01  1.000000e+01
      vertex   4.499800e+01  1.000000e+01  3.000000e+01
      vertex   6.499800e+01  1.000000e+01  1.000000e+01
    endloop
  endfacet
  facet normal  0.000000e+00  1.000000e+00  0.000000e+00
    outer loop
      vertex   2.499800e+01  1.000000e+01  1.000000e+01
      vertex   4.499800e+01  1.000000e+01  3.000000e+01
      vertex   4.499800e+01  1.000000e+01  1.000000e+01
    endloop
  endfacet
  facet normal  7.063631e-01  0.000000e+00  7.078496e-01
    outer loop
      vertex   4.499800e+01  4.249800e+01  2.995800e+01
      vertex   2.499800e+01  4.000000e+01  4.991600e+01
      vertex   4.499800e+01  4.000000e+01  2.995800e+01
    endloop
  endfacet
  facet normal  7.063632e-01 -0.000000e+00  7.078496e-01
    outer loop
      vertex   4.499800e+01  4.249800e+01  2.995800e+01
      vertex   6.499800e+01  4.499800e+01  1.000000e+01
      vertex   4.499800e+01  4.499800e+01  2.995800e+01
    endloop
  endfacet
  facet normal  7.063631e-01 -0.000000e+00  7.078496e-01
    outer loop
      vertex   4.499800e+01  4.000000e+01  2.995800e+01
      vertex   6.499800e+01  4.000000e+01  1.000000e+01
      vertex   4.499800e+01  4.249800e+01  2.995800e+01
    endloop
  endfacet
  facet normal  7.063632e-01  0.000000e+00  7.078496e-01
    outer loop
      vertex   6.499800e+01  4.499800e+01  1.000000e+01
      vertex   4.499800e+01  4.249800e+01  2.995800e+01
      vertex   6.499800e+01  4.000000e+01  1.000000e+01
    endloop
  endfacet
  facet normal  7.063632e-01 -0.000000e+00  7.078496e-01
    outer loop
      vertex   2.499800e+01  4.000000e+01  4.991600e+01
      vertex   4.499800e+01  4.249800e+01  2.995800e+01
      vertex   2.499800e+01  4.499800e+01  4.991600e+01
    endloop
  endfacet
  facet normal  7.063632e-01  0.000000e+00  7.078496e-01
    outer loop
      vertex   4.499800e+01  4.499800e+01  2.995800e+01
      vertex   2.499800e+01  4.499800e+01  4.991600e+01
      vertex   4.499800e+01  4.249800e+01  2.995800e+01
    endloop
  endfacet
  facet normal  0.000000e+00 -1.000000e+00  0.000000e+00
    outer loop
      vertex   2.499800e+01  4.000000e+01  1.000000e+01
      vertex   4.499800e+01  4.000000e+01  1.000000e+01
      vertex   4.499800e+01  4.000000e+01  2.995800e+01
    endloop
  endfacet
  facet normal  0.000000e+00 -1.000000e+00  0.000000e+00
    outer loop
      vertex   2.499800e+01  4.000000e+01  2.995800e+01
      vertex   4.499800e+01  4.000000e+01  2.995800e+01
      vertex   2.499800e+01  4.000000e+01  4.991600e+01
    endloop
  endfacet
  facet normal  0.000000e+00 -1.000000e+00  0.000000e+00
    outer loop
      vertex   4.499800e+01  4.000000e+01  1.000000e+01
      vertex   6.499800e+01  4.000000e+01  1.000000e+01
      vertex   4.499800e+01  4.000000e+01  2.995800e+01
    endloop
  endfacet
  facet normal -0.000000e+00 -1.000000e+00  0.000000e+00
    outer loop
      vertex   4.499800e+01  4.000000e+01  2.995800e+01
      vertex   2.499800e+01  4.000000e+01  2.995800e+01
      vertex   2.499800e+01  4.000000e+01  1.000000e+01
    endloop
  endfacet
endsolid vcg
